<?xml version="1.0" encoding="utf-8"?>
<!-- Generator: Adobe Illustrator 26.0.1, SVG Export Plug-In . SVG Version: 6.00 Build 0)  -->
<svg version="1.1" id="Layer_1" xmlns="http://www.w3.org/2000/svg" xmlns:xlink="http://www.w3.org/1999/xlink" x="0px" y="0px"
	 viewBox="0 0 110 23" style="enable-background:new 0 0 110 23;" xml:space="preserve">
<style type="text/css">
	.st0{fill:#FFFFFF;}
</style>
<path class="st0" d="M32.2,0.6L32.2,0.6h5v12.8c0,1.5,0.2,2.4,0.8,2.9c0.5,0.5,1.6,0.8,3.3,0.8H44c1.4,0,2.3-0.3,2.8-0.8
	c0.5-0.5,0.7-1.5,0.7-2.9V0.6h5v14.8c0,2.5-0.5,4.3-1.6,5.4c-1,1.1-2.8,1.6-5.4,1.6H40c-3,0-5-0.5-6.2-1.5c-1.1-1-1.7-2.8-1.7-5.5
	V0.6z M90.7,0.6h6c2.4,0.5,4.1,1.8,4.2,5.1l0.1,16.4h-5.5l-0.1-8.5l-4.8,0l-4.7,0v8.4h-5.2c0-5.6,0-11.2,0-16.7
	c0-2.8,1.5-4.4,4.1-4.8c1.4,0,2.9,0,4.3,0H90.7z M90.7,9L90.7,9h4.6c0.2-2-0.5-3.1-2.3-3.2c-0.8,0-1.6,0-2.3,0c-0.9,0-1.7,0-2.6,0
	c-1.7,0.3-2.1,1.6-2,3.2H90.7z M66.3,0.6h0.3H71c1.8,0,3.2,0.5,4.1,1.5c0.9,1,1.4,2.5,1.4,4.5c0,1.1-0.2,2.1-0.6,2.8
	c-0.4,0.7-1,1.3-1.8,1.8c1,0.2,1.8,0.7,2.3,1.6c0.5,0.8,0.7,2,0.7,3.6c0,2-0.4,3.5-1.2,4.4c-0.8,0.9-2.2,1.4-4,1.4h-5.2h-0.3h-10
	V0.6H66.3z M66.3,9L66.3,9h0.3h3.5c0.4,0,0.7-0.2,0.9-0.5c0.2-0.3,0.3-0.8,0.3-1.3c0-0.5-0.1-0.9-0.3-1.3c-0.2-0.3-0.5-0.5-0.9-0.5
	h-3.5h-0.3h-5V9H66.3z M66.3,17.3L66.3,17.3h0.3h3.9c0.4,0,0.8-0.2,1-0.5c0.2-0.3,0.4-0.8,0.4-1.5c0-0.6-0.1-1-0.4-1.4
	c-0.3-0.3-0.6-0.5-1-0.5h-3.9h-0.3h-5v3.9H66.3z M13.7,8.6L13.7,8.6h5.2l4.6-8h5.4l-5.4,10.6l5.8,10.9h-5.9L18.9,14h-5.2v8.1H9V0.6
	h4.7V8.6z"/>
</svg>
